<?xml version="1.0" encoding="UTF-8" standalone="no"?><svg xmlns="http://www.w3.org/2000/svg" xmlns:xlink="http://www.w3.org/1999/xlink" contentScriptType="application/ecmascript" contentStyleType="text/css" height="151px" preserveAspectRatio="none" style="width:473px;height:151px;" version="1.1" viewBox="0 0 473 151" width="473px" zoomAndPan="magnify"><defs><filter height="300%" id="f1jwioe40d3s3s" width="300%" x="-1" y="-1"><feGaussianBlur result="blurOut" stdDeviation="2.0"/><feColorMatrix in="blurOut" result="blurOut2" type="matrix" values="0 0 0 0 0 0 0 0 0 0 0 0 0 0 0 0 0 0 .4 0"/><feOffset dx="4.0" dy="4.0" in="blurOut2" result="blurOut3"/><feBlend in="SourceGraphic" in2="blurOut3" mode="normal"/></filter></defs><g><rect fill="#FEFECE" filter="url(#f1jwioe40d3s3s)" height="36.2969" rx="12.5" ry="12.5" style="stroke: #A80036; stroke-width: 1.5;" width="76" x="10" y="62.2227"/><text fill="#000000" font-family="sans-serif" font-size="14" lengthAdjust="spacingAndGlyphs" textLength="56" x="20" y="85.2178">ログイン</text><rect fill="#90EE90" filter="url(#f1jwioe40d3s3s)" height="36.2969" rx="12.5" ry="12.5" style="stroke: #A80036; stroke-width: 1.5;" width="104" x="136" y="48.1484"/><text fill="#000000" font-family="sans-serif" font-size="14" lengthAdjust="spacingAndGlyphs" textLength="84" x="146" y="71.1436">アイテム一覧</text><rect fill="#90EE90" filter="url(#f1jwioe40d3s3s)" height="36.2969" rx="12.5" ry="12.5" style="stroke: #A80036; stroke-width: 1.5;" width="48" x="290" y="20"/><text fill="#000000" font-family="sans-serif" font-size="14" lengthAdjust="spacingAndGlyphs" textLength="28" x="300" y="42.9951">登録</text><text fill="#000000" font-family="sans-serif" font-size="14" lengthAdjust="spacingAndGlyphs" textLength="70" x="391" y="42.9951">一覧に戻る</text><path d="M338,38.1484 L348,38.1484 C363,38.1484 363,38.1484 378,38.1484 L388,38.1484 " fill="none" style="stroke: #A80036; stroke-width: 1.0;"/><path d="M240,66.2969 L250,66.2969 C265,66.2969 265,38.1484 280,38.1484 L290,38.1484 " fill="none" style="stroke: #A80036; stroke-width: 1.0;"/><rect fill="#90EE90" filter="url(#f1jwioe40d3s3s)" height="36.2969" rx="12.5" ry="12.5" style="stroke: #A80036; stroke-width: 1.5;" width="48" x="290" y="76.2969"/><text fill="#000000" font-family="sans-serif" font-size="14" lengthAdjust="spacingAndGlyphs" textLength="28" x="300" y="99.292">編集</text><text fill="#000000" font-family="sans-serif" font-size="14" lengthAdjust="spacingAndGlyphs" textLength="70" x="391" y="99.292">詳細に戻る</text><path d="M338,94.4453 L348,94.4453 C363,94.4453 363,94.4453 378,94.4453 L388,94.4453 " fill="none" style="stroke: #A80036; stroke-width: 1.0;"/><path d="M240,66.2969 L250,66.2969 C265,66.2969 265,94.4453 280,94.4453 L290,94.4453 " fill="none" style="stroke: #A80036; stroke-width: 1.0;"/><path d="M86,80.3711 L96,80.3711 C111,80.3711 111,66.2969 126,66.2969 L136,66.2969 " fill="none" style="stroke: #A80036; stroke-width: 1.0;"/><rect fill="#FEFECE" filter="url(#f1jwioe40d3s3s)" height="36.2969" rx="12.5" ry="12.5" style="stroke: #A80036; stroke-width: 1.5;" width="104" x="136" y="104.4453"/><text fill="#000000" font-family="sans-serif" font-size="14" lengthAdjust="spacingAndGlyphs" textLength="84" x="146" y="127.4404">エラーページ</text><path d="M86,80.3711 L96,80.3711 C111,80.3711 111,122.5938 126,122.5938 L136,122.5938 " fill="none" style="stroke: #A80036; stroke-width: 1.0;"/><!--MD5=[99127acdd1504fb9d2b4f690d1427d68]
@startmindmap
* ログイン
**[#lightgreen] アイテム一覧
***[#lightgreen] 登録
****_ 一覧に戻る
***[#lightgreen] 編集
****_ 詳細に戻る
** エラーページ
@endmindmap

PlantUML version 1.2019.12(Sun Nov 03 19:24:54 JST 2019)
(GPL source distribution)
Java Runtime: OpenJDK Runtime Environment
JVM: OpenJDK 64-Bit Server VM
Java Version: 1.8.0_275-b01
Operating System: Linux
Default Encoding: UTF-8
Language: en
Country: US
--></g></svg>