<?xml version="1.0" encoding="UTF-8" standalone="no"?><svg xmlns="http://www.w3.org/2000/svg" xmlns:xlink="http://www.w3.org/1999/xlink" contentScriptType="application/ecmascript" contentStyleType="text/css" height="238px" preserveAspectRatio="none" style="width:216px;height:238px;" version="1.1" viewBox="0 0 216 238" width="216px" zoomAndPan="magnify"><defs><filter height="300%" id="f1nhjrrxn22o9k" width="300%" x="-1" y="-1"><feGaussianBlur result="blurOut" stdDeviation="2.0"/><feColorMatrix in="blurOut" result="blurOut2" type="matrix" values="0 0 0 0 0 0 0 0 0 0 0 0 0 0 0 0 0 0 .4 0"/><feOffset dx="4.0" dy="4.0" in="blurOut2" result="blurOut3"/><feBlend in="SourceGraphic" in2="blurOut3" mode="normal"/></filter></defs><g><!--MD5=[1b7a85e673bafd7b87d95c7609f580d2]
cluster EC2--><rect fill="#FFFFFF" filter="url(#f1nhjrrxn22o9k)" height="203" style="stroke: #000000; stroke-width: 1.5;" width="183" x="22" y="24"/><text fill="#000000" font-family="sans-serif" font-size="14" font-weight="bold" lengthAdjust="spacingAndGlyphs" textLength="30" x="98.5" y="38.9951">EC2</text><!--MD5=[c4f91dbcd4f3e6a5ee0b9117e9210cd6]
cluster php--><rect fill="#FFFFFF" filter="url(#f1nhjrrxn22o9k)" height="73" style="stroke: #000000; stroke-width: 1.5;" width="100" x="63" y="130"/><line style="stroke: #000000; stroke-width: 1.5;" x1="63" x2="163" y1="150.2969" y2="150.2969"/><text fill="#000000" font-family="sans-serif" font-size="14" font-weight="bold" lengthAdjust="spacingAndGlyphs" textLength="30" x="98" y="144.9951">php</text><!--MD5=[8824c66cba45be527cf3dd56bcd70cd2]
entity nginx--><polygon fill="#FEFECE" filter="url(#f1nhjrrxn22o9k)" points="111.5,69,121.5,59,188.5,59,188.5,95.2969,178.5,105.2969,111.5,105.2969,111.5,69" style="stroke: #000000; stroke-width: 1.5;"/><line style="stroke: #000000; stroke-width: 1.5;" x1="178.5" x2="187.5" y1="69" y2="60"/><line style="stroke: #000000; stroke-width: 1.5;" x1="111.5" x2="178.5" y1="69" y2="69"/><line style="stroke: #000000; stroke-width: 1.5;" x1="178.5" x2="178.5" y1="69" y2="105.2969"/><text fill="#000000" font-family="sans-serif" font-size="14" lengthAdjust="spacingAndGlyphs" textLength="37" x="126.5" y="91.9951">nginx</text><!--MD5=[7468467f3b6b392f1d176d828c753b77]
entity db--><path d="M38,69.5 C38,59.5 57,59.5 57,59.5 C57,59.5 76,59.5 76,69.5 L76,94.7969 C76,104.7969 57,104.7969 57,104.7969 C57,104.7969 38,104.7969 38,94.7969 L38,69.5 " fill="#FEFECE" filter="url(#f1nhjrrxn22o9k)" style="stroke: #000000; stroke-width: 1.5;"/><path d="M38,69.5 C38,79.5 57,79.5 57,79.5 C57,79.5 76,79.5 76,69.5 " fill="none" style="stroke: #000000; stroke-width: 1.5;"/><text fill="#000000" font-family="sans-serif" font-size="14" lengthAdjust="spacingAndGlyphs" textLength="18" x="48" y="96.4951">db</text><!--MD5=[86db9153297144e8c64ce77f7e43ad6f]
entity Laravel--><rect fill="#FEFECE" filter="url(#f1nhjrrxn22o9k)" height="22.2969" style="stroke: #000000; stroke-width: 1.5;" width="67" x="79.5" y="165"/><text fill="#000000" font-family="sans-serif" font-size="14" lengthAdjust="spacingAndGlyphs" textLength="47" x="89.5" y="180.9951">Laravel</text><!--MD5=[a3f26ddd88ce44a62758dc19985b8b80]
link db to Laravel--><path d="M70.2712,104.803 C81.7856,123.719 97.9454,150.2675 106.724,164.6892 " fill="none" id="db-Laravel" style="stroke: #A80036; stroke-width: 1.0;"/><!--MD5=[d3b528ec8a00934d964660ec43a6d39d]
link nginx to Laravel--><path d="M141.043,105.271 C133.429,124.202 122.846,150.5185 117.103,164.7973 " fill="none" id="nginx-Laravel" style="stroke: #A80036; stroke-width: 1.0;"/><!--MD5=[c056077c7f45334d7faccf38c2b0fe3d]
@startuml
rectangle EC2{
  node nginx
  card php {
    card Laravel
  }
  database db
}

db - - Laravel
nginx - - Laravel

@enduml

PlantUML version 1.2019.12(Sun Nov 03 19:24:54 JST 2019)
(GPL source distribution)
Java Runtime: OpenJDK Runtime Environment
JVM: OpenJDK 64-Bit Server VM
Java Version: 1.8.0_275-b01
Operating System: Linux
Default Encoding: UTF-8
Language: en
Country: US
--></g></svg>