<?xml version="1.0" encoding="UTF-8" standalone="no"?><svg xmlns="http://www.w3.org/2000/svg" xmlns:xlink="http://www.w3.org/1999/xlink" contentScriptType="application/ecmascript" contentStyleType="text/css" height="395px" preserveAspectRatio="none" style="width:154px;height:395px;" version="1.1" viewBox="0 0 154 395" width="154px" zoomAndPan="magnify"><defs><filter height="300%" id="f125lksv54q9jc" width="300%" x="-1" y="-1"><feGaussianBlur result="blurOut" stdDeviation="2.0"/><feColorMatrix in="blurOut" result="blurOut2" type="matrix" values="0 0 0 0 0 0 0 0 0 0 0 0 0 0 0 0 0 0 .4 0"/><feOffset dx="4.0" dy="4.0" in="blurOut2" result="blurOut3"/><feBlend in="SourceGraphic" in2="blurOut3" mode="normal"/></filter><linearGradient id="g125lksv54q9jc0" x1="50%" x2="50%" y1="0%" y2="100%"><stop offset="0%" stop-color="#F2F2F2"/><stop offset="100%" stop-color="#D9D9D9"/></linearGradient></defs><g><!--MD5=[e169ac431914a6adb8cf110c9da1459f]
cluster DB--><path d="M22,34 C22,24 82,24 82,24 C82,24 142,24 142,34 L142,373 C142,383 82,383 82,383 C82,383 22,383 22,373 L22,34 " fill="#FFFFFF" filter="url(#f125lksv54q9jc)" style="stroke: #000000; stroke-width: 1.5;"/><path d="M22,34 C22,44 82,44 82,44 C82,44 142,44 142,34 " fill="none" style="stroke: #000000; stroke-width: 1.5;"/><text fill="#000000" font-family="sans-serif" font-size="14" font-weight="bold" lengthAdjust="spacingAndGlyphs" textLength="90" x="37" y="58.9951">データベース</text><!--MD5=[e116840c36b60e3226aaff077ac2b102]
class table_A--><rect fill="url(#g125lksv54q9jc0)" filter="url(#f125lksv54q9jc)" height="86.4141" id="table_A" style="stroke: #000000; stroke-width: 1.5;" width="88" x="38" y="74"/><ellipse cx="53" cy="90" fill="#AAFFAA" rx="11" ry="11" style="stroke: #000000; stroke-width: 1.0;"/><path d="M48.7188,83.6094 L51.6406,83.6094 L53.1094,89.0469 L54.5781,83.6094 L57.5156,83.6094 L57.5156,96 L55.4063,96 L55.4063,86.0781 L54.0938,91.5 L52.1563,91.5 L50.8281,86.0781 L50.8281,96 L48.7188,96 L48.7188,83.6094 Z "/><text fill="#000000" font-family="sans-serif" font-size="12" lengthAdjust="spacingAndGlyphs" textLength="56" x="67" y="94.1543">テーブルA</text><line style="stroke: #000000; stroke-width: 1.5;" x1="39" x2="125" y1="106" y2="106"/><text fill="#000000" font-family="sans-serif" font-size="11" lengthAdjust="spacingAndGlyphs" textLength="44" x="44" y="120.2104">外部キー</text><line style="stroke: #000000; stroke-width: 1.0;" x1="39" x2="125" y1="126.8047" y2="126.8047"/><text fill="#000000" font-family="sans-serif" font-size="11" lengthAdjust="spacingAndGlyphs" textLength="11" x="44" y="141.0151">ID</text><text fill="#000000" font-family="sans-serif" font-size="11" lengthAdjust="spacingAndGlyphs" textLength="22" x="44" y="153.8198">名前</text><!--MD5=[09636e57bf672dc7b253dc1002e1b0cf]
class table_B--><rect fill="url(#g125lksv54q9jc0)" filter="url(#f125lksv54q9jc)" height="86.4141" id="table_B" style="stroke: #000000; stroke-width: 1.5;" width="88" x="38" y="281"/><ellipse cx="53" cy="297" fill="#AAFFAA" rx="11" ry="11" style="stroke: #000000; stroke-width: 1.0;"/><path d="M48.7188,290.6094 L51.6406,290.6094 L53.1094,296.0469 L54.5781,290.6094 L57.5156,290.6094 L57.5156,303 L55.4063,303 L55.4063,293.0781 L54.0938,298.5 L52.1563,298.5 L50.8281,293.0781 L50.8281,303 L48.7188,303 L48.7188,290.6094 Z "/><text fill="#000000" font-family="sans-serif" font-size="12" lengthAdjust="spacingAndGlyphs" textLength="56" x="67" y="301.1543">テーブルB</text><line style="stroke: #000000; stroke-width: 1.5;" x1="39" x2="125" y1="313" y2="313"/><text fill="#000000" font-family="sans-serif" font-size="11" lengthAdjust="spacingAndGlyphs" textLength="44" x="44" y="327.2104">外部キー</text><line style="stroke: #000000; stroke-width: 1.0;" x1="39" x2="125" y1="333.8047" y2="333.8047"/><text fill="#000000" font-family="sans-serif" font-size="11" lengthAdjust="spacingAndGlyphs" textLength="11" x="44" y="348.0151">ID</text><text fill="#000000" font-family="sans-serif" font-size="11" lengthAdjust="spacingAndGlyphs" textLength="22" x="44" y="360.8198">名前</text><!--MD5=[2e48404bd94c62fbb753f14b66d17e32]
link table_A to table_B--><path d="M82,160.476 C82,193.157 82,238.406 82,272.863 " fill="none" id="table_A-&gt;table_B" style="stroke: #000000; stroke-width: 1.0;"/><line style="stroke: #000000; stroke-width: 1.0;" x1="82" x2="88" y1="272.929" y2="280.929"/><line style="stroke: #000000; stroke-width: 1.0;" x1="82" x2="76" y1="272.929" y2="280.929"/><line style="stroke: #000000; stroke-width: 1.0;" x1="82" x2="82" y1="272.929" y2="280.929"/><ellipse cx="82" cy="266.929" fill="none" rx="4" ry="4" style="stroke: #000000; stroke-width: 1.0;"/><!--MD5=[bccbbdd361b04cc5ac4d65b331fc34b8]
@startuml


skinparam class {
  BackgroundColor #F2F2F2-D9D9D9
  BorderColor Black
  ArrowColor Black
}

package "データベース" as DB <<Database>> {
    entity "テーブルA" as table_A <<M,AAFFAA>> {
      外部キー
      - -
      ID
      名前
    }

    entity "テーブルB" as table_B <<M,AAFFAA>> {
      外部キー
      - -
      ID
      名前
    }

    table_A - - -o{  table_B
}

@enduml

PlantUML version 1.2019.12(Sun Nov 03 19:24:54 JST 2019)
(GPL source distribution)
Java Runtime: OpenJDK Runtime Environment
JVM: OpenJDK 64-Bit Server VM
Java Version: 1.8.0_275-b01
Operating System: Linux
Default Encoding: UTF-8
Language: en
Country: US
--></g></svg>