<?xml version="1.0" encoding="UTF-8" standalone="no"?><svg xmlns="http://www.w3.org/2000/svg" xmlns:xlink="http://www.w3.org/1999/xlink" contentScriptType="application/ecmascript" contentStyleType="text/css" height="387px" preserveAspectRatio="none" style="width:254px;height:387px;" version="1.1" viewBox="0 0 254 387" width="254px" zoomAndPan="magnify"><defs><filter height="300%" id="f9ojs26hn8whh" width="300%" x="-1" y="-1"><feGaussianBlur result="blurOut" stdDeviation="2.0"/><feColorMatrix in="blurOut" result="blurOut2" type="matrix" values="0 0 0 0 0 0 0 0 0 0 0 0 0 0 0 0 0 0 .4 0"/><feOffset dx="4.0" dy="4.0" in="blurOut2" result="blurOut3"/><feBlend in="SourceGraphic" in2="blurOut3" mode="normal"/></filter></defs><g><rect fill="#FEFECE" filter="url(#f9ojs26hn8whh)" height="33.9688" rx="12.5" ry="12.5" style="stroke: #A80036; stroke-width: 1.5;" width="92" x="20" y="38.6982"/><text fill="#000000" font-family="sans-serif" font-size="12" lengthAdjust="spacingAndGlyphs" textLength="72" x="30" y="59.8369">フォーム送信</text><rect fill="#FEFECE" filter="url(#f9ojs26hn8whh)" height="33.9688" rx="12.5" ry="12.5" style="stroke: #A80036; stroke-width: 1.5;" width="92" x="20" y="341.3813"/><text fill="#000000" font-family="sans-serif" font-size="12" lengthAdjust="spacingAndGlyphs" textLength="72" x="30" y="362.52">ポイント獲得</text><rect fill="#FEFECE" filter="url(#f9ojs26hn8whh)" height="33.9688" rx="12.5" ry="12.5" style="stroke: #A80036; stroke-width: 1.5;" width="68" x="138" y="148.3774"/><text fill="#000000" font-family="sans-serif" font-size="12" lengthAdjust="spacingAndGlyphs" textLength="48" x="148" y="169.5161">内容確認</text><rect fill="#FEFECE" filter="url(#f9ojs26hn8whh)" height="33.9688" rx="12.5" ry="12.5" style="stroke: #A80036; stroke-width: 1.5;" width="68" x="138" y="211.4438"/><text fill="#000000" font-family="sans-serif" font-size="12" lengthAdjust="spacingAndGlyphs" textLength="48" x="148" y="232.5825">認証付与</text><polygon fill="#FEFECE" filter="url(#f9ojs26hn8whh)" points="160,92.667,184,92.667,196,104.667,184,116.667,160,116.667,148,104.667,160,92.667" style="stroke: #A80036; stroke-width: 1.5;"/><text fill="#000000" font-family="sans-serif" font-size="11" lengthAdjust="spacingAndGlyphs" textLength="22" x="176" y="126.8774">なし</text><text fill="#000000" font-family="sans-serif" font-size="11" lengthAdjust="spacingAndGlyphs" textLength="22" x="161" y="108.4751">認証</text><text fill="#000000" font-family="sans-serif" font-size="11" lengthAdjust="spacingAndGlyphs" textLength="22" x="126" y="102.0728">あり</text><rect fill="#FEFECE" filter="url(#f9ojs26hn8whh)" height="33.9688" rx="12.5" ry="12.5" style="stroke: #A80036; stroke-width: 1.5;" width="92" x="126" y="287.4126"/><text fill="#000000" font-family="sans-serif" font-size="12" lengthAdjust="spacingAndGlyphs" textLength="72" x="136" y="308.5513">ポイント処理</text><line style="stroke: #A80036; stroke-width: 1.5;" x1="172" x2="172" y1="182.3462" y2="211.4438"/><polygon fill="#A80036" points="168,201.4438,172,211.4438,176,201.4438,172,205.4438" style="stroke: #A80036; stroke-width: 1.0;"/><line style="stroke: #A80036; stroke-width: 1.5;" x1="172" x2="172" y1="116.667" y2="148.3774"/><polygon fill="#A80036" points="168,138.3774,172,148.3774,176,138.3774,172,142.3774" style="stroke: #A80036; stroke-width: 1.0;"/><line style="stroke: #A80036; stroke-width: 1.5;" x1="172" x2="172" y1="245.4126" y2="255.4126"/><line style="stroke: #A80036; stroke-width: 1.5;" x1="172" x2="218" y1="255.4126" y2="255.4126"/><polygon fill="#A80036" points="214,191.4438,218,181.4438,222,191.4438,218,187.4438" style="stroke: #A80036; stroke-width: 1.5;"/><line style="stroke: #A80036; stroke-width: 1.5;" x1="218" x2="218" y1="104.667" y2="255.4126"/><line style="stroke: #A80036; stroke-width: 1.5;" x1="218" x2="196" y1="104.667" y2="104.667"/><polygon fill="#A80036" points="206,100.667,196,104.667,206,108.667,202,104.667" style="stroke: #A80036; stroke-width: 1.0;"/><line style="stroke: #A80036; stroke-width: 1.5;" x1="148" x2="126" y1="104.667" y2="104.667"/><polygon fill="#A80036" points="122,177.4438,126,187.4438,130,177.4438,126,181.4438" style="stroke: #A80036; stroke-width: 1.5;"/><line style="stroke: #A80036; stroke-width: 1.5;" x1="126" x2="126" y1="104.667" y2="267.4126"/><line style="stroke: #A80036; stroke-width: 1.5;" x1="126" x2="172" y1="267.4126" y2="267.4126"/><line style="stroke: #A80036; stroke-width: 1.5;" x1="172" x2="172" y1="267.4126" y2="287.4126"/><polygon fill="#A80036" points="168,277.4126,172,287.4126,176,277.4126,172,281.4126" style="stroke: #A80036; stroke-width: 1.0;"/><line style="stroke: #A80036; stroke-width: 1.5;" x1="66" x2="66" y1="72.667" y2="77.667"/><line style="stroke: #A80036; stroke-width: 1.5;" x1="66" x2="172" y1="77.667" y2="77.667"/><line style="stroke: #A80036; stroke-width: 1.5;" x1="172" x2="172" y1="77.667" y2="92.667"/><polygon fill="#A80036" points="168,82.667,172,92.667,176,82.667,172,86.667" style="stroke: #A80036; stroke-width: 1.0;"/><line style="stroke: #A80036; stroke-width: 1.5;" x1="172" x2="172" y1="321.3813" y2="326.3813"/><line style="stroke: #A80036; stroke-width: 1.5;" x1="172" x2="66" y1="326.3813" y2="326.3813"/><line style="stroke: #A80036; stroke-width: 1.5;" x1="66" x2="66" y1="326.3813" y2="341.3813"/><polygon fill="#A80036" points="62,331.3813,66,341.3813,70,331.3813,66,335.3813" style="stroke: #A80036; stroke-width: 1.0;"/><text fill="#000000" font-family="sans-serif" font-size="18" lengthAdjust="spacingAndGlyphs" textLength="54" x="38.5" y="29.4531">お客様</text><text fill="#000000" font-family="sans-serif" font-size="18" lengthAdjust="spacingAndGlyphs" textLength="36" x="154" y="29.4531">運営</text><line style="stroke: #000000; stroke-width: 2.0;" x1="10" x2="10" y1="12.7451" y2="375.3501"/><line style="stroke: #000000; stroke-width: 2.0;" x1="117" x2="117" y1="12.7451" y2="375.3501"/><line style="stroke: #000000; stroke-width: 2.0;" x1="242" x2="242" y1="12.7451" y2="375.3501"/><!--MD5=[d338400eb793303454b2404338f96e5c]
@startuml
|お客様|
:フォーム送信;
|運営|
while (認証) is (なし)
  :内容確認;
  :認証付与;
endwhile (あり)
:ポイント処理;
|お客様|
:ポイント獲得;
@enduml

PlantUML version 1.2019.12(Sun Nov 03 19:24:54 JST 2019)
(GPL source distribution)
Java Runtime: OpenJDK Runtime Environment
JVM: OpenJDK 64-Bit Server VM
Java Version: 1.8.0_275-b01
Operating System: Linux
Default Encoding: UTF-8
Language: en
Country: US
--></g></svg>